<?xml version="1.0" standalone="no"?><!DOCTYPE svg PUBLIC "-//W3C//DTD SVG 1.1//EN" "http://www.w3.org/Graphics/SVG/1.1/DTD/svg11.dtd"><svg t="1594266003143" class="icon" viewBox="0 0 1024 1024" version="1.1" xmlns="http://www.w3.org/2000/svg" p-id="2080" xmlns:xlink="http://www.w3.org/1999/xlink" width="200" height="200"><defs><style type="text/css"></style></defs><path d="M512 800.768l-217.429333 95.829333a36.266667 36.266667 0 0 1-50.730667-36.864l23.936-236.373333-158.293333-177.194667A36.266667 36.266667 0 0 1 128.853333 386.56L361.088 336.213333l119.594667-205.312a36.266667 36.266667 0 0 1 62.634666 0l119.594667 205.312L895.146667 386.56a36.266667 36.266667 0 0 1 19.370666 59.605333l-158.293333 177.194667 23.893333 236.373333a36.266667 36.266667 0 0 1-50.688 36.864L512 800.768z m-14.634667-49.493333a36.266667 36.266667 0 0 1 29.269334 0l199.978666 88.106666-22.016-217.429333a36.266667 36.266667 0 0 1 9.045334-27.818667l145.621333-162.986666-213.589333-46.250667a36.266667 36.266667 0 0 1-23.68-17.194667L512 178.858667 402.005333 367.701333a36.266667 36.266667 0 0 1-23.68 17.194667l-213.589333 46.250667 145.621333 162.986666a36.266667 36.266667 0 0 1 9.045334 27.818667l-22.016 217.429333 199.978666-88.106666z" p-id="2081"></path></svg>