<?xml version="1.0" standalone="no"?><!DOCTYPE svg PUBLIC "-//W3C//DTD SVG 1.1//EN" "http://www.w3.org/Graphics/SVG/1.1/DTD/svg11.dtd"><svg t="1593833424973" class="icon" viewBox="0 0 1024 1024" version="1.1" xmlns="http://www.w3.org/2000/svg" p-id="3035" xmlns:xlink="http://www.w3.org/1999/xlink" width="200" height="200"><defs><style type="text/css"></style></defs><path d="M463.36 522.24h-197.12c-35.84 0-64-28.16-64-64v-186.88c0-35.84 28.16-64 64-64h197.12c35.84 0 64 28.16 64 64v186.88c0 35.84-28.16 64-64 64z m-197.12-263.68c-7.68 0-12.8 5.12-12.8 12.8v186.88c0 7.68 5.12 12.8 12.8 12.8h197.12c7.68 0 12.8-5.12 12.8-12.8v-186.88c0-7.68-5.12-12.8-12.8-12.8h-197.12zM832 522.24h-197.12c-35.84 0-64-28.16-64-64v-186.88c0-35.84 28.16-64 64-64h197.12c35.84 0 64 28.16 64 64v186.88c0 35.84-28.16 64-64 64z m-194.56-263.68c-7.68 0-12.8 5.12-12.8 12.8v186.88c0 7.68 5.12 12.8 12.8 12.8h197.12c7.68 0 12.8-5.12 12.8-12.8v-186.88c0-7.68-5.12-12.8-12.8-12.8h-197.12zM455.68 875.52h-197.12c-35.84 0-64-28.16-64-64v-186.88c0-35.84 28.16-64 64-64h197.12c35.84 0 64 28.16 64 64v186.88c0 35.84-28.16 64-64 64z m-194.56-263.68c-7.68 0-12.8 5.12-12.8 12.8v186.88c0 7.68 5.12 12.8 12.8 12.8h197.12c7.68 0 12.8-5.12 12.8-12.8v-186.88c0-7.68-5.12-12.8-12.8-12.8h-197.12zM734.72 875.52h-104.96c-35.84 0-64-28.16-64-64v-186.88c0-35.84 28.16-64 64-64h197.12c35.84 0 64 28.16 64 64v48.64h-51.2v-48.64c0-7.68-5.12-12.8-12.8-12.8h-197.12c-7.68 0-12.8 5.12-12.8 12.8v186.88c0 7.68 5.12 12.8 12.8 12.8h104.96v51.2z" fill="#333333" p-id="3036"></path></svg>