<?xml version="1.0" standalone="no"?><!DOCTYPE svg PUBLIC "-//W3C//DTD SVG 1.1//EN" "http://www.w3.org/Graphics/SVG/1.1/DTD/svg11.dtd"><svg t="1593848538276" class="icon" viewBox="0 0 1024 1024" version="1.1" xmlns="http://www.w3.org/2000/svg" p-id="8473" xmlns:xlink="http://www.w3.org/1999/xlink" width="200" height="200"><defs><style type="text/css"></style></defs><path d="M206.933333 868.266667C106.666667 780.8 42.666667 654.933333 42.666667 512 42.666667 253.866667 253.866667 42.666667 512 42.666667s469.333333 211.2 469.333333 469.333333c0 142.933333-64 268.8-164.266666 356.266667l-2.133334 2.133333C733.866667 938.666667 627.2 981.333333 512 981.333333c-115.2 0-221.866667-42.666667-302.933333-110.933333l-2.133334-2.133333zM512 128C300.8 128 128 300.8 128 512c0 83.2 27.733333 160 72.533333 224 21.333333-85.333333 74.666667-157.866667 151.466667-202.666667-21.333333-29.866667-32-68.266667-32-106.666666 0-106.666667 85.333333-192 192-192s192 85.333333 192 192c0 40.533333-12.8 76.8-32 106.666666 76.8 44.8 132.266667 117.333333 151.466667 202.666667 44.8-64 72.533333-140.8 72.533333-224 0-211.2-172.8-384-384-384z m-106.666667 298.666667c0 59.733333 46.933333 106.666667 106.666667 106.666666s106.666667-46.933333 106.666667-106.666666-46.933333-106.666667-106.666667-106.666667-106.666667 46.933333-106.666667 106.666667z m341.333334 388.266666V810.666667c0-93.866667-55.466667-179.2-142.933334-215.466667-27.733333 14.933333-57.6 23.466667-91.733333 23.466667s-64-8.533333-91.733333-23.466667c-85.333333 36.266667-142.933333 121.6-142.933334 215.466667v4.266666c64 51.2 145.066667 81.066667 234.666667 81.066667s170.666667-29.866667 234.666667-81.066667z" fill="#2F3CF4" p-id="8474"></path></svg>