<?xml version="1.0" standalone="no"?><!DOCTYPE svg PUBLIC "-//W3C//DTD SVG 1.1//EN" "http://www.w3.org/Graphics/SVG/1.1/DTD/svg11.dtd"><svg t="1593848587782" class="icon" viewBox="0 0 1117 1024" version="1.1" xmlns="http://www.w3.org/2000/svg" p-id="11495" xmlns:xlink="http://www.w3.org/1999/xlink" width="218.1640625" height="200"><defs><style type="text/css"></style></defs><path d="M464.392505 969.681234a43.00799 43.00799 0 0 1-42.961444-42.961445c0-23.691631 19.269814-42.961445 42.961444-42.961444 23.668358 0 42.961445 19.269814 42.961445 42.961444a43.00799 43.00799 0 0 1-42.961445 42.961445m0-140.241423a97.396342 97.396342 0 0 0-97.279977 97.279978 97.396342 97.396342 0 0 0 97.279977 97.279978 97.396342 97.396342 0 0 0 97.279978-97.279978 97.396342 97.396342 0 0 0-97.279978-97.279978M805.593882 969.681234a43.00799 43.00799 0 0 1-42.961444-42.961445c0-23.691631 19.269814-42.961445 42.961444-42.961444 23.691631 0 42.961445 19.269814 42.961445 42.961444a43.00799 43.00799 0 0 1-42.961445 42.961445m0-140.241423a97.396342 97.396342 0 0 0-97.279977 97.279978A97.396342 97.396342 0 0 0 805.593882 1023.999767a97.396342 97.396342 0 0 0 97.279978-97.279978 97.396342 97.396342 0 0 0-97.279978-97.279978M829.564786 317.277019H440.351784a27.159267 27.159267 0 1 0 0 54.318533h389.166457a27.159267 27.159267 0 1 0 0-54.318533M808.386609 458.309714H461.529961a27.159267 27.159267 0 1 0 0 54.318533h346.810103a27.159267 27.159267 0 0 0 0-54.318533" fill="#1A72FE" p-id="11496"></path><path d="M976.415662 599.319137H293.593999L217.585289 230.586129h834.745992l-75.962165 368.733008z m118.039246-403.037a54.085806 54.085806 0 0 0-42.100354-20.014541H206.414382L189.332204 93.370161a54.365079 54.365079 0 0 0-31.557811-38.865446L38.571511 2.746181a27.159267 27.159267 0 1 0-21.643631 49.803625l119.226155 51.758534L267.52855 742.167104a54.527988 54.527988 0 0 0 53.201443 43.357081h650.612215a27.159267 27.159267 0 0 0 0-54.318533H320.753265l-15.98836-77.591255h671.650757a54.527988 54.527988 0 0 0 53.17817-43.357081l75.962164-368.709735a54.109079 54.109079 0 0 0-11.101088-45.265444z" fill="#1A72FE" p-id="11497"></path></svg>